<svg width="41" height="41" viewBox="0 0 41 41" fill="none" xmlns="http://www.w3.org/2000/svg">
<path fill-rule="evenodd" clip-rule="evenodd" d="M26.0401 8.09331C26.0401 11.8875 29.1204 14.9633 32.9202 14.9633C33.3386 14.9613 33.7559 14.9211 34.167 14.8433V28.4633C34.167 34.1933 30.787 37.5833 25.0486 37.5833H12.5504C6.79694 37.5833 3.41699 34.1933 3.41699 28.4633V15.9833C3.41699 10.2533 6.79694 6.83331 12.5504 6.83331H26.1603C26.0795 7.24845 26.0393 7.67042 26.0401 8.09331ZM22.4649 25.4483L27.347 19.1483V19.1183C27.765 18.5567 27.6583 17.7648 27.1067 17.3333C26.8396 17.1272 26.5003 17.038 26.1663 17.086C25.8322 17.1341 25.532 17.3153 25.3341 17.5883L21.218 22.8833L16.5312 19.1933C16.2636 18.9848 15.9232 18.8928 15.5868 18.938C15.2505 18.9831 14.9465 19.1617 14.7436 19.4333L9.69618 25.9433C9.51877 26.1645 9.42325 26.44 9.42579 26.7233C9.39649 27.296 9.75811 27.8161 10.3056 27.989C10.8532 28.1618 11.4485 27.9437 11.7542 27.4583L15.9754 21.9983L20.6622 25.6733C20.9288 25.8882 21.2714 25.9857 21.6114 25.9432C21.9514 25.9008 22.2595 25.7221 22.4649 25.4483Z" fill="#18B3AB"/>
<circle opacity="0.4" cx="33.3128" cy="7.68752" r="4.27083" fill="#18B3AB"/>
</svg>
