<svg xmlns="http://www.w3.org/2000/svg" width="760" height="190" viewBox="0 0 760 190"><defs><linearGradient id="g" x1="0" x2="1"><stop stop-color="#b8eee9"/><stop offset="1" stop-color="#eefafa"/></linearGradient></defs><rect width="760" height="190" rx="10" fill="url(#g)"/><rect x="418" y="36" width="260" height="118" rx="10" fill="#fff"/><path d="M448 66h180M448 94h150M448 122h190" stroke="#bdd5d8" stroke-width="8" stroke-linecap="round"/><circle cx="250" cy="78" r="42" fill="#f4c3a0"/><path d="M199 70c12-55 84-52 97 0-33-18-64-17-97 0z" fill="#243748"/><path d="M161 120h178c27 0 48 22 48 48v22H113v-22c0-26 22-48 48-48z" fill="#fff"/><path d="M245 119v71" stroke="#19b9b1" stroke-width="10"/><circle cx="244" cy="70" r="78" fill="none" stroke="#5f7b83" stroke-width="8" opacity=".45"/></svg>
