<svg width="13" height="13" viewBox="0 0 13 13" fill="none" xmlns="http://www.w3.org/2000/svg">
<path d="M6.49987 0C2.91012 0 0 2.92087 0 6.52388C0 9.58331 2.09868 12.1506 4.92976 12.8557V8.51757H3.58949V6.52388H4.92976V5.66481C4.92976 3.44435 5.931 2.41514 8.103 2.41514C8.51483 2.41514 9.2254 2.4963 9.51607 2.57719V4.38431C9.36267 4.36813 9.09618 4.36004 8.7652 4.36004C7.69949 4.36004 7.28765 4.7653 7.28765 5.81878V6.52388H9.41077L9.046 8.51757H7.28765V13C10.5061 12.6099 13 9.85941 13 6.52388C12.9997 2.92087 10.0896 0 6.49987 0Z" fill="#18B3AB"/>
</svg>
