<svg xmlns="http://www.w3.org/2000/svg" width="360" height="360" viewBox="0 0 360 360" role="img" aria-labelledby="title">
  <title id="title">Keluarga sehat</title>
  <rect width="360" height="360" rx="180" fill="#f8fbfb"/>
  <circle cx="180" cy="180" r="155" fill="#ffffff" stroke="#e1eeee" stroke-width="2"/>
  <path d="M118 132c22-45 99-45 124 0" fill="none" stroke="#d8e8e9" stroke-width="18" stroke-linecap="round"/>
  <circle cx="180" cy="124" r="34" fill="#f3c29d"/><path d="M148 118c12-44 66-41 72 0-24-12-47-12-72 0z" fill="#263747"/>
  <circle cx="132" cy="188" r="28" fill="#f3c29d"/><path d="M106 181c8-32 50-31 55 0-18-8-35-9-55 0z" fill="#263747"/>
  <circle cx="226" cy="188" r="28" fill="#f3c29d"/><path d="M200 181c8-32 50-31 55 0-18-8-35-9-55 0z" fill="#263747"/>
  <path d="M124 219h112c34 0 62 28 62 62v26H62v-26c0-34 28-62 62-62z" fill="#f2f7f7"/>
  <path d="M110 235h52v72h-52z" fill="#f4c82f"/><path d="M166 212h58v95h-58z" fill="#ffffff"/><path d="M217 236h54v71h-54z" fill="#f4c82f"/>
</svg>
