<svg xmlns="http://www.w3.org/2000/svg" width="560" height="380" viewBox="0 0 560 380" role="img" aria-labelledby="title">
  <title id="title">Ilustrasi keluarga Indonesia sehat</title>
  <rect width="560" height="380" rx="28" fill="#e9fbf8"/>
  <circle cx="420" cy="150" r="120" fill="#b8f1ea"/>
  <rect x="82" y="238" width="396" height="78" rx="28" fill="#d4c2a4"/>
  <g fill="#f3c29d">
    <circle cx="210" cy="145" r="35"/><circle cx="315" cy="128" r="41"/><circle cx="425" cy="138" r="36"/><circle cx="142" cy="188" r="28"/><circle cx="482" cy="208" r="25"/>
  </g>
  <g fill="#263747">
    <path d="M178 138c12-44 72-39 72 4-18-18-47-19-72-4z"/><path d="M273 119c12-54 81-48 84 3-27-18-57-20-84-3z"/><path d="M392 129c9-42 65-39 68 4-22-16-45-17-68-4z"/><path d="M120 181c8-33 48-30 53 2-18-10-35-11-53-2z"/>
  </g>
  <g>
    <path d="M160 215h100v105H160z" fill="#f5c840"/><path d="M265 205h108v115H265z" fill="#ffe59a"/><path d="M380 210h90v110h-90z" fill="#f2c213"/><path d="M105 218h78v102h-78z" fill="#f4c82f"/><path d="M455 232h60v88h-60z" fill="#ec5962"/>
  </g>
  <path d="M76 255c84-31 327-29 434 12" fill="none" stroke="#14b9b1" stroke-width="12" stroke-linecap="round" opacity=".45"/>
</svg>
