<svg width="13" height="9" viewBox="0 0 13 9" fill="none" xmlns="http://www.w3.org/2000/svg">
<path d="M12.8705 1.94196C12.8705 1.94196 12.7436 1.05971 12.3525 0.672313C11.8574 0.162455 11.3039 0.159955 11.05 0.129964C9.23203 -7.15057e-08 6.50254 0 6.50254 0H6.49746C6.49746 0 3.76797 -7.15057e-08 1.95 0.129964C1.69609 0.159955 1.14258 0.162455 0.647461 0.672313C0.256445 1.05971 0.132031 1.94196 0.132031 1.94196C0.132031 1.94196 0 2.97917 0 4.01389V4.98361C0 6.01833 0.129492 7.05554 0.129492 7.05554C0.129492 7.05554 0.256445 7.93779 0.644922 8.32519C1.14004 8.83505 1.79004 8.81755 2.07949 8.87253C3.12051 8.97001 6.5 9 6.5 9C6.5 9 9.23203 8.995 11.05 8.86754C11.3039 8.83754 11.8574 8.83505 12.3525 8.32519C12.7436 7.93779 12.8705 7.05554 12.8705 7.05554C12.8705 7.05554 13 6.02083 13 4.98361V4.01389C13 2.97917 12.8705 1.94196 12.8705 1.94196ZM5.15684 6.16079V2.56429L8.66836 4.36879L5.15684 6.16079Z" fill="#18B3AB"/>
</svg>
