<svg width="48" height="48" viewBox="0 0 48 48" fill="none" xmlns="http://www.w3.org/2000/svg">
<path d="M23.8977 29.0798C16.9977 29.0798 11.1758 30.2073 11.1758 34.5588C11.1758 38.9121 17.0353 40 23.8977 40C30.7976 40 36.6195 38.8725 36.6195 34.521C36.6195 30.1677 30.76 29.0798 23.8977 29.0798" fill="#18B3AB"/>
<path opacity="0.4" d="M23.8981 24.9341C28.5703 24.9341 32.3166 21.1661 32.3166 16.467C32.3166 11.7661 28.5703 8 23.8981 8C19.2259 8 15.4795 11.7661 15.4795 16.467C15.4795 21.1661 19.2259 24.9341 23.8981 24.9341" fill="#18B3AB"/>
<path opacity="0.4" d="M42.1761 18.4385C43.3849 13.6836 39.8409 9.41315 35.3281 9.41315C34.8374 9.41315 34.3682 9.46718 33.9098 9.55904C33.8489 9.57345 33.7808 9.60406 33.745 9.6581C33.7038 9.72654 33.7343 9.8184 33.779 9.87783C35.1347 11.7906 35.9137 14.1195 35.9137 16.6194C35.9137 19.0149 35.1992 21.2483 33.9456 23.1016C33.8167 23.2925 33.9313 23.5501 34.1587 23.5897C34.4739 23.6455 34.7962 23.6744 35.1257 23.6834C38.4119 23.7698 41.3613 21.6427 42.1761 18.4385" fill="#18B3AB"/>
<path d="M45.6188 29.6339C45.0171 28.3443 43.5648 27.4599 41.3567 27.0258C40.3145 26.7701 37.4939 26.4099 34.8704 26.4585C34.831 26.4639 34.8095 26.4909 34.8059 26.5089C34.8006 26.5341 34.8113 26.5774 34.8632 26.6044C36.0756 27.2078 40.7622 29.832 40.173 35.3668C40.1479 35.6063 40.3395 35.8135 40.5777 35.7774C41.731 35.6117 44.6983 34.9705 45.6188 32.9731C46.1274 31.9177 46.1274 30.6911 45.6188 29.6339" fill="#18B3AB"/>
<path opacity="0.4" d="M14.0892 9.55959C13.6325 9.46593 13.1615 9.4137 12.6709 9.4137C8.15803 9.4137 4.61402 13.6841 5.82461 18.4391C6.63763 21.6432 9.58709 23.7704 12.8732 23.6839C13.2027 23.6749 13.5269 23.6443 13.8403 23.5903C14.0677 23.5506 14.1823 23.2931 14.0534 23.1021C12.7998 21.247 12.0853 19.0154 12.0853 16.6199C12.0853 14.1182 12.8661 11.7894 14.2217 9.87838C14.2647 9.81895 14.2969 9.72709 14.2539 9.65865C14.2181 9.60281 14.1519 9.574 14.0892 9.55959" fill="#18B3AB"/>
<path d="M6.64311 27.0253C4.43505 27.4594 2.9845 28.3438 2.38278 29.6333C1.87241 30.6906 1.87241 31.9172 2.38278 32.9744C3.30326 34.97 6.27062 35.613 7.4239 35.7769C7.66208 35.813 7.8519 35.6076 7.82683 35.3663C7.23766 29.8333 11.9242 27.2091 13.1384 26.6057C13.1885 26.5769 13.1992 26.5354 13.1939 26.5084C13.1903 26.4904 13.1706 26.4634 13.1312 26.4598C10.5059 26.4094 7.68715 26.7696 6.64311 27.0253" fill="#18B3AB"/>
</svg>
