<svg width="41" height="41" viewBox="0 0 41 41" fill="none" xmlns="http://www.w3.org/2000/svg">
<path opacity="0.4" d="M27.6596 3.41669H13.3421C8.14875 3.41669 5.125 6.45752 5.125 11.6679V29.315C5.125 34.6109 8.14875 37.5834 13.3421 37.5834H27.6596C32.9367 37.5834 35.875 34.6109 35.875 29.315V11.6679C35.875 6.45752 32.9367 3.41669 27.6596 3.41669Z" fill="#18B3AB"/>
<path d="M13.8037 26.8887H27.1973C27.8786 26.9572 28.3924 27.5382 28.3926 28.2383C28.3926 28.9199 27.8787 29.5029 27.1973 29.5714H13.8037C13.2912 29.6397 12.7958 29.3832 12.5225 28.9561C12.2492 28.512 12.2493 27.9486 12.5225 27.5215C12.7958 27.0774 13.2912 26.8375 13.8037 26.8887ZM27.1973 19.0977C27.9317 19.0979 28.5293 19.6972 28.5293 20.4317C28.5293 21.1662 27.9317 21.7636 27.1973 21.7637H13.8037C13.0674 21.7637 12.4707 21.1663 12.4707 20.4317C12.4707 19.6971 13.0674 19.0977 13.8037 19.0977H27.1973ZM18.9102 11.3604C19.6463 11.3606 20.2441 11.9587 20.2441 12.6915C20.244 13.4446 19.6462 14.0419 18.9102 14.0421H13.8037C13.0674 14.0421 12.4707 13.4446 12.4707 12.71C12.4707 11.9754 13.0674 11.377 13.8037 11.377V11.3604H18.9102Z" fill="#18B3AB"/>
</svg>
