<svg width="42" height="42" viewBox="0 0 42 42" fill="none" xmlns="http://www.w3.org/2000/svg">
<path opacity="0.4" d="M32.9156 15.7867C32.1255 15.7867 31.079 15.7693 29.776 15.7693C26.5983 15.7693 23.9854 13.139 23.9854 9.93125V4.30325C23.9854 3.8605 23.6302 3.5 23.1918 3.5H13.9376C9.61807 3.5 6.125 7.0455 6.125 11.3907V30.247C6.125 34.8058 9.78441 38.5 14.298 38.5H28.0797C32.3854 38.5 35.875 34.9772 35.875 30.6285V16.5743C35.875 16.1298 35.5215 15.771 35.0814 15.7728C34.3416 15.778 33.4545 15.7867 32.9156 15.7867" fill="#18B3AB"/>
<path opacity="0.4" d="M28.1477 4.49278C27.6244 3.94853 26.7109 4.32303 26.7109 5.07727V9.69202C26.7109 11.6275 28.3034 13.22 30.2389 13.22C31.4604 13.234 33.1544 13.2375 34.5929 13.234C35.3297 13.2323 35.7042 12.352 35.1932 11.82C33.3469 9.90027 30.0412 6.45977 28.1477 4.49278" fill="#18B3AB"/>
<path d="M26.4343 22.2406C25.9233 21.7348 25.1008 21.7313 24.5898 22.2441L21.809 25.0388V16.5916C21.809 15.8723 21.2245 15.2878 20.5053 15.2878C19.786 15.2878 19.2015 15.8723 19.2015 16.5916V25.0388L16.419 22.2441C15.9098 21.7313 15.0855 21.7348 14.5763 22.2406C14.0653 22.7481 14.0653 23.5723 14.571 24.0833L19.5813 29.1163H19.583C19.702 29.2353 19.8438 29.3316 20.003 29.3981C20.1605 29.4628 20.332 29.4978 20.5053 29.4978C20.6803 29.4978 20.8518 29.4628 21.0093 29.3963C21.165 29.3316 21.3068 29.2353 21.4258 29.1181L21.4293 29.1163L26.4378 24.0833C26.9453 23.5723 26.9453 22.7481 26.4343 22.2406" fill="#18B3AB"/>
</svg>
