<svg width="41" height="41" viewBox="0 0 41 41" fill="none" xmlns="http://www.w3.org/2000/svg">
<path opacity="0.4" d="M20.1175 37.3056C16.2173 34.8966 12.5917 32.0561 9.30702 28.836C6.98816 26.5368 5.21722 23.7295 4.12953 20.6286C2.18608 14.581 4.44838 7.66953 10.7646 5.61768C14.0984 4.5707 17.7243 5.21341 20.5122 7.34555C23.3013 5.2158 26.9259 4.57329 30.2599 5.61768C36.5761 7.66953 38.8536 14.581 36.9101 20.6286C35.8313 23.7266 34.0709 26.5337 31.763 28.836C28.4754 32.0526 24.8502 34.8928 20.9526 37.3056L20.5274 37.5833L20.1175 37.3056Z" fill="#18B3AB"/>
<path d="M20.519 37.5833L20.1176 37.3056C16.2126 34.8968 12.582 32.0563 9.29198 28.836C6.96213 26.54 5.18065 23.7325 4.08413 20.6286C2.15586 14.581 4.41816 7.66952 10.7344 5.61767C14.0682 4.57069 17.7419 5.2139 20.519 7.36389V37.5833Z" fill="#18B3AB"/>
<path d="M31.1433 17.082C30.8002 17.0599 30.4806 16.8884 30.2595 16.6077C30.0384 16.3269 29.9351 15.9616 29.9739 15.5974C30.0111 14.3975 29.3284 13.3054 28.2755 12.8804C27.6079 12.6982 27.2036 11.9752 27.3706 11.2622C27.5291 10.5606 28.1861 10.1244 28.8463 10.2823C28.9297 10.2961 29.0099 10.3263 29.083 10.3714C31.194 11.1837 32.5607 13.3701 32.452 15.7607C32.4485 16.123 32.3072 16.4683 32.0605 16.7174C31.8138 16.9665 31.4828 17.0981 31.1433 17.082Z" fill="#18B3AB"/>
</svg>
