<svg width="46" height="46" viewBox="0 0 46 46" fill="none" xmlns="http://www.w3.org/2000/svg">
<path opacity="0.4" d="M42.1663 22.9996C42.1663 33.5873 33.5854 42.1663 22.9997 42.1663C12.4139 42.1663 3.83301 33.5873 3.83301 22.9996C3.83301 12.4158 12.4139 3.83295 22.9997 3.83295C33.5854 3.83295 42.1663 12.4158 42.1663 22.9996Z" fill="#00B6A3"/>
<path d="M22.9902 28.6129C23.935 28.6129 24.6863 29.366 24.6865 30.2896C24.6865 31.2134 23.9355 31.9673 23.0098 31.9673C22.0802 31.9673 21.3232 31.2134 21.3232 30.2896C21.3235 29.3661 22.0725 28.613 22.9902 28.6129ZM22.9902 14.0601C23.914 14.0601 24.6678 14.8132 24.668 15.7369V24.2086C24.668 25.1324 23.9141 25.8863 22.9902 25.8863C22.0665 25.8861 21.3135 25.1323 21.3135 24.2086V15.7369C21.3137 14.8133 22.0667 14.0603 22.9902 14.0601Z" fill="#00B6A3"/>
</svg>
