<svg width="16" height="20" viewBox="0 0 16 20" fill="none" xmlns="http://www.w3.org/2000/svg">
<path d="M8 12.6396C9.97836 12.6396 16 12.6392 16 16.3301C16 19.619 11.4345 20 8 20C7.65384 20 7.31263 19.9954 6.97754 19.9854C6.57909 19.9753 6.2653 19.644 6.27734 19.2471C6.28841 18.8512 6.63227 18.553 7.01855 18.5498C7.34057 18.5588 7.66792 18.5635 8 18.5635C12.3492 18.5635 14.5547 17.812 14.5547 16.3301C14.5547 14.8341 12.3492 14.0752 8 14.0752C3.65082 14.0752 1.44531 14.8276 1.44531 16.3105C1.44542 16.7955 1.61856 17.4981 3.12012 18.0039C3.49848 18.1309 3.70104 18.5381 3.57324 18.9131C3.44441 19.288 3.03559 19.4933 2.65625 19.3633C0.461069 18.6244 0.000141824 17.2954 0 16.3105C0 13.0206 4.56553 12.6396 8 12.6396ZM8 0C10.9704 0 13.3865 2.40175 13.3867 5.35352C13.3867 8.30444 10.9706 10.707 8 10.707C5.02943 10.707 2.6123 8.30444 2.6123 5.35352C2.6125 2.40175 5.02955 0 8 0ZM8 1.43652C5.82653 1.43652 4.05878 3.19373 4.05859 5.35352C4.05859 7.51246 5.82642 9.26953 8 9.26953C10.1736 9.26953 11.9414 7.51246 11.9414 5.35352C11.9412 3.19373 10.1735 1.43652 8 1.43652Z" fill="#18B3AB"/>
</svg>
